<?xml version="1.0" encoding="UTF-8"?><svg id="Layer_2" xmlns="http://www.w3.org/2000/svg" viewBox="0 0 323.07 173.79"><defs><style>.cls-1{fill:#fff;stroke-width:0px;}</style></defs><g id="Layer_1-2"><path class="cls-1" d="M8.4,62.17c-2.81.64-4.94.88-6.38.74-1.44-.14-2.11-1.06-2.01-2.76.07-1.27.56-2.3,1.45-3.1.9-.8,2.27-1.53,4.14-2.2,1.07-.41,2.47-.94,4.18-1.58s3.35-1.26,4.91-1.87c3.26-1.03,5.94-1.91,8.06-2.63,2.11-.71,4.32-1.39,6.6-2.04,2.28-.64,5.18-1.4,8.68-2.27,2.89-.76,6.38-1.68,10.47-2.77.3-.06,1.38-.16,3.24-.3,1.86-.14,3.88-.26,6.06-.36s3.81-.04,4.9.17c2.42.07,4.25.45,5.48,1.16,1.23.71,2.21,1.88,2.94,3.53.53,1.15.67,1.89.42,2.2-.25.31-.75.74-1.48,1.3-2.19,1.15-3.84,1.83-4.96,2.04s-2.42.2-3.93-.04c-.6-.41-1.27-.75-2-1.03-.73-.28-1.91-.4-3.52-.35-1.62.05-4.11.28-7.48.71-2.77.84-5.22,1.46-7.34,1.86s-3.13.86-3.04,1.36l-8.86,2.15-7.28,2.17c-.99.29-2.38.69-4.17,1.18-1.79.5-3.53.98-5.22,1.46-1.69.48-2.97.9-3.84,1.28ZM24.31,152.74c-.81.15-1.84-.33-3.1-1.45-1.26-1.12-1.96-2.3-2.08-3.53-.21-1.63-.19-4.05.04-7.23.23-3.18.56-6.44.97-9.76.42-3.32.86-5.97,1.32-7.94.1-1.69.2-3.2.32-4.54.11-1.33.18-2.21.21-2.63.23-.46.5-1.61.84-3.46.33-1.84.54-3.61.64-5.3.05-.85.19-2.47.41-4.87.22-2.4.53-5.2.92-8.42.38-3.21.78-6.37,1.18-9.49.4-3.11.75-5.85,1.03-8.2.29-2.36.46-3.91.53-4.65.58-1.37.96-2.64,1.16-3.83.19-1.19.3-1.99.33-2.42.53-.52.78-1.11.76-1.79-.03-.68-.07-1.22-.15-1.62-.1-.5,0-.94.3-1.31.29-.37.41-.76.33-1.16.35-.38.51-.91.48-1.58-.03-.68.17-1.31.58-1.92l.27-2.72,8.91-1.85c.03,1.25,0,2.8-.06,4.64-.07,1.85-.58,4.38-1.54,7.59-.12,2.12-.36,4.05-.71,5.79-.35,1.74-.43,2.86-.23,3.34-.16.24-.4,1.33-.71,3.28-.31,1.94-.65,4.31-1.01,7.1-.36,2.79-.72,5.58-1.08,8.37-.36,2.79-.68,5.23-.97,7.33-.28,2.1-.48,3.41-.58,3.96-.5,1.77-.96,4.32-1.38,7.64-.42,3.32-1.13,7.86-2.13,13.59-.5,1.77-1.03,4.38-1.58,7.84-.55,3.46-.93,6.56-1.14,9.32-.37,4.15-.63,7.05-.79,8.71-.16,1.65-.37,2.58-.65,2.79s-.83.34-1.65.39Z"/><path class="cls-1" d="M152.91,122.31c-1.27-1.12-2.53-2.23-3.8-3.34-.78-1.31-1.7-3.46-2.76-6.46-1.05-2.99-1.91-6.94-2.55-11.84-.5-1.47-.95-3.9-1.35-7.28-.4-3.38-.72-7.17-.97-11.36-.25-4.2-.42-8.27-.51-12.24-.1-3.96-.07-7.16.08-9.61-.84-6.44-1.29-10.88-1.35-13.33-.06-2.45-.14-3.93-.24-4.43-.18-.38-.91.73-2.18,3.33-1.27,2.61-2.6,5.99-3.99,10.13-.9,2.38-1.72,4.45-2.48,6.22-.75,1.77-1.28,2.95-1.59,3.53-.65,1.49-1.17,3.24-1.56,5.26-.39,2.02-1.31,5.47-2.76,10.37-2.81,7.05-5.05,12.33-6.72,15.86-1.67,3.53-3.12,5.85-4.37,6.99-1.25,1.14-2.61,1.69-4.08,1.66-3.07-.13-5.3-.95-6.69-2.46-1.4-1.51-2.62-4.41-3.67-8.71-.63-2.71-1.15-5.07-1.55-7.09l-.8-4.09c.22-.99.16-2.02-.21-3.1-.37-1.08-.55-1.88-.55-2.41-.18-.38-.15-1.2.07-2.45.23-1.25.25-2.59.08-4.02-.07-1.98-.26-4.38-.55-7.2-.29-2.82-.63-5.35-1.01-7.58-.39-2.23-.75-3.42-1.09-3.56.28.37.22.98-.19,1.84-.41.87-.71,1.58-.91,2.15-1.42,2.9-2.88,7.24-4.36,13.04-1.49,5.79-3.41,13.11-5.76,21.96.13,2.28-.16,5.32-.88,9.13-.72,3.81-1.52,7.22-2.4,10.22-.29,1.73-.65,3.66-1.07,5.79-.42,2.13-.87,4.13-1.34,6-.47,1.88-.96,3.39-1.47,4.53-.6,3.89-1.31,6.31-2.12,7.25-.81.94-2.42.92-4.81-.08-1.67-1.03-2.89-2.16-3.65-3.37-.76-1.21-.78-2.89-.04-5.02.79-1.31,1.51-3.13,2.15-5.45.64-2.33,1.16-4.52,1.54-6.59.38-2.06.49-3.24.33-3.52-.18-.38-.12-1,.19-1.84.3-.85,1-2.53,2.08-5.04-.18-.38-.03-1.9.44-4.57.47-2.66,1.23-5.87,2.28-9.64.2-.56.39-1.23.55-2,.17-.76.15-1.39-.05-1.88.22-.46.39-1.07.51-1.83.11-.75.43-1.39.96-1.92.02-.95.21-2.14.56-3.57.35-1.43.48-2.61.41-3.54.22-.99.44-1.87.66-2.64.22-.77.51-1.52.9-2.22.34-.38.6-.96.76-1.72.16-.76.41-1.39.73-1.87.17-1.29.55-2.83,1.14-4.62.59-1.79,1.34-3.82,2.26-6.1.91-2.27,1.86-4.66,2.84-7.16.49-1.25.84-2.39,1.06-3.43.21-1.04.68-2.41,1.39-4.12,1.08-2.52,1.87-4.61,2.39-6.28.37-.8.79-1.86,1.27-3.16.48-1.3.98-2.47,1.51-3.52.53-1.05.94-1.6,1.25-1.66.58-.22,1.62,0,3.11.65,1.49.65,2.91,1.47,4.26,2.47,1.35.99,2.1,1.89,2.26,2.7.08.4.17,1.38.26,2.94.09,1.55.14,3.38.13,5.48,0,2.1-.14,4.11-.39,6.05.31,2.14.52,4.67.62,7.58.1,2.92.18,5.89.25,8.91.07,3.03.27,5.92.6,8.69.37,3.49.31,8.01-.17,13.55.28.37.55.81.81,1.33.26.53.48,1.24.66,2.15l.65,3.33,4.54-7.33c.98-2.5,1.91-4.8,2.81-6.92.9-2.11,1.69-4.08,2.38-5.89-.1-.5.02-1.1.36-1.8.33-.69.55-1.58.66-2.64.53-.52.99-1.24,1.39-2.16.4-.91.45-1.82.18-2.71.71-1.71,1.73-4.03,3.04-6.96,1.32-2.93,2.76-6.09,4.35-9.5,1.59-3.4,3.16-6.72,4.73-9.96,1.57-3.24,2.98-6.06,4.24-8.46,1.26-2.39,2.18-3.96,2.77-4.71,1.2-1.39,2.62-2.29,4.26-2.72,1.65-.43,3.44.06,5.39,1.46,1.59,1.16,2.61,2.35,3.06,3.57.45,1.22.45,3.08,0,5.58-.42,4.27-.89,8.3-1.41,12.07-.52,3.77-.59,6.35-.21,7.74-.23.99-.31,2.16-.26,3.51.05,1.35.11,2.44.17,3.27-.22.99-.34,1.9-.33,2.74,0,.84-.2,1.51-.63,2.01.1.51.39,1.31.87,2.42.48,1.11.73,2.29.77,3.54.37,9.36.89,17.09,1.56,23.2.67,6.11,1.54,10.65,2.59,13.64,1.06,2.99,2.28,4.56,3.67,4.7.38-.18.65-.02.8.47.15.5.21,1.74.18,3.74.22.59.33,1.27.32,2.06,0,.79-.05,1.5-.13,2.15-.08.65-.2,1.14-.34,1.48-.71,1.19-1.33,1.89-1.87,2.1-.53.21-2.17.27-4.92.18Z"/><path class="cls-1" d="M192.82,107.19c-3.23.09-6-.57-8.3-1.96-2.3-1.39-4.22-3.36-5.75-5.9-1.05-1.69-1.87-3.23-2.45-4.64-.58-1.41-.68-3.87-.3-7.4-.35-3.49-.48-7.1-.41-10.84.08-3.73.42-7.59,1.03-11.58.36-3.62.73-6.36,1.11-8.22.49-4.07,1.42-8.8,2.81-14.19,1.39-5.39,2.98-10.79,4.78-16.22,1.8-5.42,3.64-10.21,5.51-14.39,1.88-4.18,3.55-7.08,5.02-8.72.76-.98,1.63-1.75,2.63-2.3C199.49.28,200.4,0,201.24,0c.83,0,1.33.4,1.48,1.21-.09.65-.12,1.02-.1,1.12s.24.17.66.19c.93-.07,1.32.59,1.16,1.98-.16,1.39-.65,2.95-1.47,4.68-.83,1.73-1.87,3.13-3.13,4.21-.16,1.39-.71,2.6-1.67,3.61-.18,1.29-.51,2.82-1.01,4.59-.72,1.71-1.22,3.22-1.5,4.52-.7,1.29-1.25,2.41-1.64,3.37-.39.96-.54,1.7-.44,2.2-.71,2.33-1.23,4.14-1.57,5.4-.33,1.27-.47,2.05-.42,2.36l-.92.96c.1.51,0,1.7-.26,3.58-.27,1.88-.81,3.74-1.61,5.57-.78,3.08-1.29,6.05-1.53,8.93-.24,2.87-.54,4.76-.89,5.66-.13.44-.17,1.03-.14,1.75-.33.48-.59,1.58-.79,3.29-.2,1.71-.15,3.9.15,6.57-.31,2.26-.73,5.01-1.27,8.25-.62.01-.85.79-.66,2.32.18,1.54.56,3.27,1.14,5.2.57,1.93,1.04,3.55,1.39,4.84,1.04,1.06,2.25,1.54,3.65,1.43,1.39-.11,3.79-.59,7.19-1.44,1.25-.03,2.66-.32,4.23-.88,1.57-.56,3.03-.86,4.38-.91.91-.17,2.31-.52,4.2-1.03,1.89-.51,3.72-1.1,5.48-1.74,3.07-.9,4.95-1.38,5.61-1.46.67-.07,1.43.23,2.29.9,1.52,1.39,2.12,2.48,1.8,3.27-.32.79-1.4,1.63-3.22,2.49-3.65,1.74-7.37,3.36-11.17,4.87-3.8,1.5-7.28,2.71-10.46,3.63-3.18.92-5.63,1.49-7.37,1.71Z"/><path class="cls-1" d="M51.65,170.59c-1.91-1.67-1.92-3.71-.01-6.11,1.9-2.41,5.4-4.91,10.47-7.49,5.07-2.58,11.35-5.05,18.84-7.4,2.55-.5,5-1.08,7.35-1.75s4.2-1.32,5.54-1.93c2.01-.65,5.04-1.5,9.08-2.54,4.04-1.04,8.24-2.09,12.62-3.16,4.37-1.06,8.31-1.96,11.8-2.68,3.49-.72,5.66-1.15,6.53-1.28.2.44,1.05.52,2.54.24s2.91-.73,4.25-1.34c1.53-.7,3.34-1.29,5.44-1.78,2.09-.48,3.62-.68,4.59-.59.95-.44,2.12-.8,3.49-1.09,1.37-.29,2.44-.61,3.2-.96s1.59-.56,2.49-.63c.89-.07,1.72-.28,2.49-.63,2.84-.36,7.28-1.15,13.32-2.37,6.04-1.22,12.75-2.61,20.14-4.18,7.38-1.57,14.63-3.17,21.75-4.82,7.11-1.64,13.11-3.08,18-4.31,4.88-1.22,7.8-2.06,8.76-2.5,1.53-.7,2.78-1,3.75-.91s1.65.58,2.06,1.47c.73.07,1.3.31,1.72.72.42.41.73.84.93,1.28-1.13,1.59-2.26,3.17-3.38,4.75-.94,1.5-2.23,2.72-3.88,3.68-1.65.95-3.62,1.95-5.92,3-2.49,1.14-4.77,1.98-6.83,2.52-2.07.54-5.15,1.15-9.24,1.81-4.09.67-10.45,1.7-19.07,3.09-4.24.86-8.26,1.56-12.06,2.1-3.81.53-6.1.98-6.86,1.33s-2.01.68-3.71.99c-1.71.31-3.81.77-6.32,1.38-1.74.26-4.26.67-7.58,1.26-3.33.58-6.85,1.22-10.58,1.92-3.73.7-6.92,1.32-9.57,1.86-2.65.54-4.16.9-4.54,1.07-.77.35-1.55.67-2.34.97-.79.29-1.67.39-2.64.3-.2-.44-1.38-.24-3.54.61-1.92.88-7.4,2.31-16.43,4.3-11.34,3.04-21.76,5.83-31.25,8.35-9.49,2.53-16.92,5.02-22.28,7.47-4.59,2.1-7.64,3.42-9.12,3.96-1.49.55-2.82.55-3.99.02Z"/><path class="cls-1" d="M171.43,173.41c-1.87-1.57-2.27-3.5-1.2-5.77,1.07-2.27,3.41-4.63,7.01-7.06,3.6-2.43,8.2-4.76,13.8-6.97,1.96-.47,3.84-1.02,5.61-1.65s3.14-1.24,4.11-1.82c1.5-.61,3.79-1.41,6.85-2.39,3.06-.98,6.26-1.97,9.59-2.97,3.33-1,6.34-1.84,9.02-2.52,2.68-.68,4.36-1.08,5.03-1.2.25.42.95.49,2.1.23s2.21-.68,3.18-1.26c1.1-.66,2.45-1.22,4.05-1.68,1.59-.46,2.79-.64,3.6-.55.69-.41,1.56-.75,2.61-1.03,1.05-.28,1.85-.58,2.4-.91s1.18-.53,1.89-.6c.7-.07,1.34-.27,1.89-.6,2.23-.34,5.66-1.08,10.31-2.23,4.65-1.15,9.8-2.46,15.47-3.93,5.67-1.47,11.22-2.98,16.66-4.53,5.44-1.55,10.01-2.9,13.72-4.05,3.71-1.15,5.91-1.93,6.6-2.35,1.1-.66,2.05-.94,2.86-.86s1.45.55,1.95,1.39c.6.07,1.11.29,1.53.68.42.39.75.79,1,1.21-.61,1.5-1.21,2.99-1.81,4.48-.47,1.41-1.27,2.57-2.42,3.46-1.15.9-2.55,1.84-4.2,2.83-1.79,1.07-3.47,1.86-5.04,2.37-1.57.51-3.94,1.08-7.12,1.7-3.18.63-8.13,1.59-14.82,2.9-3.26.81-6.37,1.47-9.35,1.97-2.98.5-4.74.92-5.29,1.25s-1.49.64-2.81.93c-1.32.29-2.94.72-4.84,1.3-1.36.24-3.32.63-5.89,1.18-2.58.55-5.3,1.15-8.18,1.81-2.88.66-5.34,1.24-7.37,1.75-2.04.51-3.19.84-3.47,1.01-.55.33-1.12.63-1.7.91-.59.28-1.28.37-2.08.28-.25-.42-1.16-.23-2.74.58-1.38.82-5.54,2.17-12.46,4.04-8.58,2.86-16.47,5.48-23.65,7.86-7.19,2.38-12.71,4.72-16.57,7.03-3.31,1.98-5.51,3.22-6.61,3.73-1.1.51-2.17.52-3.22.01Z"/></g></svg>